HIERARCHY
ROOT Hips
{
	OFFSET	0.00	0.00	0.00
	CHANNELS 6 Xposition Yposition Zposition Zrotation Xrotation Yrotation
	JOINT LeftUpLeg
	{
		OFFSET	 0.126116	-0.014019	-0.065224
		CHANNELS 3 Zrotation Xrotation Yrotation
		JOINT LeftLeg
		{
			OFFSET	 0.000000	 0.000000	 0.569914
			CHANNELS 3 Zrotation Xrotation Yrotation
			JOINT LeftFoot
			{
				OFFSET	 0.000000	 0.000000	 0.544423
				CHANNELS 3 Zrotation Xrotation Yrotation
				JOINT LeftToeBase
				{
					OFFSET	 0.000000	 0.000000	 0.207117
					CHANNELS 3 Zrotation Xrotation Yrotation
					End Site
					{
						OFFSET	 0.000000	 0.000000	 0.207117
					}
				}
			}
		}
	}
	JOINT RightUpLeg
	{
		OFFSET	-0.124023	-0.008373	-0.065224
		CHANNELS 3 Zrotation Xrotation Yrotation
		JOINT RightLeg
		{
			OFFSET	 0.000000	 0.000000	 0.570047
			CHANNELS 3 Zrotation Xrotation Yrotation
			JOINT RightFoot
			{
				OFFSET	 0.000000	 0.000000	 0.544354
				CHANNELS 3 Zrotation Xrotation Yrotation
				JOINT RightToeBase
				{
					OFFSET	 0.000000	 0.000000	 0.207540
					CHANNELS 3 Zrotation Xrotation Yrotation
					End Site
					{
						OFFSET	 0.000000	 0.000000	 0.207540
					}
				}
			}
		}
	}
	JOINT Spine
	{
		OFFSET	 0.000184	-0.007763	 0.117403
		CHANNELS 3 Zrotation Xrotation Yrotation
		JOINT Spine1
		{
			OFFSET	 0.000000	 0.000000	 0.137269
			CHANNELS 3 Zrotation Xrotation Yrotation
			JOINT Spine2
			{
				OFFSET	 0.000000	 0.000000	 0.156879
				CHANNELS 3 Zrotation Xrotation Yrotation
				JOINT LeftShoulder
				{
					OFFSET	 0.080501	-0.002496	 0.160144
					CHANNELS 3 Zrotation Xrotation Yrotation
					JOINT LeftArm
					{
						OFFSET	 0.000000	 0.000000	 0.164363
						CHANNELS 3 Zrotation Xrotation Yrotation
						JOINT LeftForeArm
						{
							OFFSET	 0.000000	 0.000000	 0.364576
							CHANNELS 3 Zrotation Xrotation Yrotation
							JOINT LeftHand
							{
								OFFSET	 0.000000	 0.000000	 0.360812
								CHANNELS 3 Zrotation Xrotation Yrotation
								JOINT LeftHandIndex1
								{
									OFFSET	 0.000000	 0.000000	 0.086006
									CHANNELS 3 Zrotation Xrotation Yrotation
									JOINT LeftHandIndex2
									{
										OFFSET	 0.000000	 0.000000	 0.047236
										CHANNELS 3 Zrotation Xrotation Yrotation
										JOINT LeftHandIndex3
										{
											OFFSET	-0.004284	-0.000551	 0.038166
											CHANNELS 3 Zrotation Xrotation Yrotation
											End Site
											{
												OFFSET	-0.004284	-0.000551	 0.038166
											}
										}
									}
								}
							}
						}
					}
				}
				JOINT Neck
				{
					OFFSET	 0.000000	 0.000000	 0.176489
					CHANNELS 3 Zrotation Xrotation Yrotation
					JOINT Head
					{
						OFFSET	 0.000000	-0.001747	 0.077940
						CHANNELS 3 Zrotation Xrotation Yrotation
						End Site
						{
							OFFSET	 0.000000	-0.001747	 0.077940
						}
					}
				}
				JOINT RightShoulder
				{
					OFFSET	-0.080363	 0.000306	 0.159706
					CHANNELS 3 Zrotation Xrotation Yrotation
					JOINT RightArm
					{
						OFFSET	 0.000000	 0.000000	 0.164196
						CHANNELS 3 Zrotation Xrotation Yrotation
						JOINT RightForeArm
						{
							OFFSET	 0.000000	 0.000000	 0.365611
							CHANNELS 3 Zrotation Xrotation Yrotation
							JOINT RightHand
							{
								OFFSET	 0.000000	 0.000000	 0.360648
								CHANNELS 3 Zrotation Xrotation Yrotation
								JOINT RightHandIndex1
								{
									OFFSET	 0.000000	 0.000000	 0.069977
									CHANNELS 3 Zrotation Xrotation Yrotation
									JOINT RightHandIndex2
									{
										OFFSET	 0.000000	 0.000000	 0.052305
										CHANNELS 3 Zrotation Xrotation Yrotation
										JOINT RightHandIndex3
										{
											OFFSET	 0.009002	-0.000782	 0.042196
											CHANNELS 3 Zrotation Xrotation Yrotation
											End Site
											{
												OFFSET	 0.009002	-0.000782	 0.042196
											}
										}
									}
								}
							}
						}
					}
				}
			}
		}
	}
}
MOTION
Frames:    5
Frame Time: 0.03333334
-0.058236	-2.246758	 1.200513	 4.257939	-1.751777	-3.596031	 23.701880	-9.550548	-175.806700	 0.431192	-39.214610	 0.041991	 69.445590	 82.582510	-73.088080	-2.371085	 31.330040	-0.063485	-27.297850	-31.200340	-175.671400	 10.256600	-52.436450	 8.720703	 1.972668	 71.944520	 5.370571	 2.358011	 33.141300	 0.106505	 19.390140	 8.913964	 1.026282	 1.390137	 3.301775	 2.804974	-7.819628	-2.805179	-3.662337	-93.795160	 58.886710	 175.703000	 10.115080	 27.413750	-43.372590	 12.322630	-1.663249	-7.053946	-8.279974	-8.352927	-7.500279	-4.869401	 19.241430	-2.786450	-3.889711	 21.367980	 2.211068	-4.808244	 5.545662	 0.146960	-0.118249	-5.024600	 0.162562	-9.868587	 1.817130	 2.269670	 89.823950	 61.592350	-179.900400	-18.968370	 49.108560	 12.753510	-14.285800	-3.113159	 10.278580	 3.686346	 4.795127	 0.024710	 6.302725	 25.812140	-0.571294	 1.754142	 45.740720	-6.875677	 0.378106	 24.922360	 3.644042
-0.060947	-2.310742	 1.198073	 5.357211	-1.123908	-3.597114	 22.076280	-6.815900	-177.130400	 1.080488	-37.923080	 0.447307	 80.191160	 84.265370	-83.989230	-2.369147	 31.655670	-0.070855	-30.754640	-34.262570	-179.266200	 9.780139	-44.135940	 7.381094	-6.642600	 73.214430	 14.025270	 2.358941	 33.004450	 0.103332	 13.488460	 8.567288	 0.913716	 1.189785	 3.484027	 2.805142	-8.004891	-3.079163	-3.643904	-94.013760	 59.017250	 175.220500	 8.096990	 23.979990	-44.131160	 14.428420	-2.493834	-8.552012	-6.475469	-9.918823	-9.144037	-4.867219	 19.298110	-2.790311	-3.879994	 21.492360	 2.201206	-4.806896	 5.561591	 0.146026	-0.058191	-5.090939	 0.203742	-9.832422	 1.775540	 2.024496	 89.751490	 61.683060	 179.926800	-19.057320	 51.364580	 8.363411	-17.436420	-5.934752	 15.211990	 2.112231	 4.154011	-0.044152	 6.286729	 24.292560	-0.541234	 1.956855	 44.117260	-7.056612	 0.647865	 23.740220	 3.507102
-0.063820	-2.369231	 1.192174	 6.148638	-0.321773	-3.727072	 20.853770	-4.579339	-178.132400	 1.387426	-36.916290	 0.621541	 98.130170	 85.613720	-101.868400	-2.367418	 31.940230	-0.077314	-33.478790	-36.063310	 177.353800	 9.695199	-35.216350	 6.072895	-14.515630	 73.687450	 21.071980	 2.359572	 32.910340	 0.101144	 7.960655	 7.998650	 0.846441	 1.040584	 3.694896	 2.925616	-8.172901	-3.345531	-3.703257	-94.230670	 59.004340	 174.759600	 6.243642	 21.189330	-44.632260	 16.689000	-3.367177	-9.813890	-4.778108	-11.948120	-9.640625	-4.858228	 19.529410	-2.805854	-3.865726	 21.674430	 2.186700	-4.799966	 5.643228	 0.141246	-0.018249	-5.131798	 0.268583	-9.849802	 1.742143	 1.904010	 89.656070	 61.799010	 179.698000	-18.785570	 53.093430	 4.917143	-20.498040	-8.500763	 18.524140	 0.314261	 3.345759	-0.312291	 6.261908	 22.611100	-0.572918	 2.137653	 42.577890	-7.216524	 1.000735	 22.156020	 3.334970
-0.067284	-2.429519	 1.184051	 6.521709	 0.382247	-4.087934	 20.044010	-1.683810	-179.051600	 1.567871	-35.253970	 0.701461	 128.412200	 86.387410	-132.029200	-2.364191	 32.451100	-0.088999	-34.288510	-37.893220	 174.807700	 9.819611	-27.943290	 4.979687	-18.308220	 73.670490	 23.699200	 2.360145	 32.825580	 0.099182	 2.424237	 7.369066	 1.043920	 0.893319	 4.057338	 2.952461	-8.283203	-3.590860	-3.731451	-94.404430	 58.926730	 174.401400	 4.591812	 19.070890	-45.106540	 18.377080	-4.304049	-10.950210	-3.636873	-14.392710	-8.999635	-4.841375	 19.909640	-2.821005	-3.844687	 21.941220	 2.165325	-4.786196	 5.805200	 0.131731	 0.001142	-5.205399	 0.324582	-9.890801	 1.697744	 1.863154	 89.527610	 61.952860	 179.386500	-18.085270	 54.367450	 2.804684	-24.172380	-9.796249	 19.012550	-1.754953	 2.394689	-1.185364	 6.227771	 20.678200	-0.641870	 2.319999	 40.930950	-7.376254	 1.422981	 20.204740	 3.139868
-0.071853	-2.488814	 1.172618	 6.669072	 0.707653	-4.408635	 19.367170	 1.696592	 179.829200	 1.670867	-33.442440	 0.726516	 159.835500	 86.657840	-163.239400	-2.355986	 33.660570	-0.117069	-33.614020	-42.113240	 172.939400	 9.815854	-26.661850	 4.788143	-28.899650	 80.141110	 33.121530	 2.349830	 34.278580	 0.133263	-3.245501	 6.926761	 1.274279	 0.781593	 4.666457	 2.884654	-8.318535	-3.865747	-3.706098	-94.496250	 58.863360	 174.216200	 3.012335	 17.759120	-45.669700	 20.096130	-5.273754	-11.953320	-2.704025	-16.535180	-8.335397	-4.825283	 20.291020	-2.841768	-3.817308	 22.285720	 2.137513	-4.764304	 6.061929	 0.116562	 0.034365	-5.300031	 0.346639	-9.868599	 1.640467	 1.758029	 89.426040	 62.036070	 179.139000	-16.900550	 55.275510	 0.465975	-27.835810	-11.105020	 19.420860	-3.767626	 1.045584	-2.488441	 6.187921	 18.548410	-0.717465	 2.596128	 38.240450	-7.614789	 1.877598	 18.037740	 2.943743
